# xmcd
#
# Track frame offsets:
#	150
#	11450
#	26742
#	41896
#	57665
#	72523
#	83395
#	98915
#	111371
#	125916
#	142728
#	162996
#	173700
#	196881
#	212264
#
# Disc length: 2987 seconds
#
# Revision: 1
# Processed by: cddbd v1.4PL0 Copyright (c) Steve Scherf et al.
# Submitted via: EasyCDDAExtractor 5.0.6
#
DISCID=ce0ba90f
DTITLE=Cobus Snyman - Live Laugh Love
DYEAR=2003
DGENRE=Country
TTITLE0=A Thing Called Love
TTITLE1=The Girl From Yesterday
TTITLE2=Live, Laugh, Love
TTITLE3=You've Got To Talk To Me
TTITLE4=Cattle Call
TTITLE5=Tall, Tall Trees
TTITLE6=Unanswered Prayers
TTITLE7=Little Ole Wine Drinker Me
TTITLE8=Big Guitar
TTITLE9=What Kind Of Love
TTITLE10=That Summer
TTITLE11=Blue Moon Of Kentucky
TTITLE12=I Know How To Love You Well
TTITLE13=Independence Day
TTITLE14=(There Will Be) Peace In The Valley
EXTD=
EXTT0=
EXTT1=
EXTT2=
EXTT3=
EXTT4=
EXTT5=
EXTT6=
EXTT7=
EXTT8=
EXTT9=
EXTT10=
EXTT11=
EXTT12=
EXTT13=
EXTT14=
PLAYORDER=
